{
.appVersion = "3342";
.formatVersion = 3;
axes = (
{
name = Width;
tag = wdth;
}
);
date = "2025-02-05 09:56:23 +0000";
familyName = Puff;
featurePrefixes = (
{
automatic = 1;
code = "languagesystem DFLT dflt;
";
name = Languagesystems;
}
);
features = (
{
automatic = 1;
code = "feature ss01;
";
tag = aalt;
},
{
automatic = 1;
code = "sub P by P.ss01;
sub Ef-cy by Ef-cy.ss01;
";
tag = ss01;
}
);
fontMaster = (
{
axesValues = (
0
);
id = m01;
metricValues = (
{
pos = 2500;
},
{
},
{
pos = -600;
},
{
pos = 1700;
},
{
pos = 1000;
}
);
name = Regular;
userData = {
GSCornerRadius = 95;
};
},
{
axesValues = (
100
);
iconName = Extended;
id = "BE12DD55-7D13-4A7B-AFE0-E30529788D84";
metricValues = (
{
pos = 2500;
},
{
},
{
pos = -600;
},
{
pos = 1700;
},
{
pos = 1000;
}
);
name = Wide;
}
);
glyphs = (
{
glyphname = C;
kernLeft = O;
kernRight = C;
lastChange = "2025-02-10 09:40:58 +0000";
layers = (
{
layerId = m01;
shapes = (
{
alignment = -1;
pos = (-120,0);
ref = "hal-oval.part";
},
{
alignment = -1;
pos = (2282,1102);
ref = dot.part;
scale = (-1,1);
},
{
alignment = -1;
pos = (2283,301);
ref = dot.part;
scale = (-1,1);
},
{
pos = (881,1300);
ref = dot.part;
},
{
closed = 1;
nodes = (
(991,1200,l),
(1496,1200,l),
(1496,1700,l),
(991,1700,l)
);
},
{
pos = (881,100);
ref = dot.part;
},
{
closed = 1;
nodes = (
(807,0,l),
(1496,0,l),
(1496,500,l),
(807,500,l)
);
}
);
width = 2133;
},
{
layerId = "BE12DD55-7D13-4A7B-AFE0-E30529788D84";
shapes = (
{
alignment = -1;
pos = (-120,0);
ref = "hal-oval.part";
},
{
alignment = -1;
pos = (4127,1052);
ref = dot.part;
scale = (-1,1);
},
{
alignment = -1;
pos = (4127,250);
ref = dot.part;
scale = (-1,1);
},
{
pos = (2526,1250);
ref = dot.part;
},
{
closed = 1;
nodes = (
(1607,1200,l),
(3145,1200,l),
(3145,1700,l),
(1607,1700,l)
);
},
{
pos = (2526,50);
ref = dot.part;
},
{
closed = 1;
nodes = (
(1607,0,l),
(3145,0,l),
(3145,500,l),
(1607,500,l)
);
}
);
width = 3977;
}
);
metricLeft = O;
metricRight = "=unit*.5";
unicode = 67;
},
{
glyphname = D;
kernLeft = H;
kernRight = O;
lastChange = "2025-02-10 07:12:41 +0000";
layers = (
{
layerId = m01;
shapes = (
{
ref = STEM.part;
},
{
alignment = -1;
pos = (2299,0);
ref = "hal-oval.part";
scale = (-1,1);
},
{
closed = 1;
nodes = (
(601,1201,l),
(1225,1201,l),
(1225,1700,l),
(601,1700,l)
);
},
{
closed = 1;
nodes = (
(601,0,l),
(1225,0,l),
(1225,499,l),
(601,499,l)
);
}
);
width = 2179;
},
{
layerId = "BE12DD55-7D13-4A7B-AFE0-E30529788D84";
shapes = (
{
ref = STEM.part;
},
{
alignment = -1;
pos = (4203,1);
ref = "hal-oval.part";
scale = (-1,1);
},
{
closed = 1;
nodes = (
(651,1201,l),
(2494,1201,l),
(2494,1700,l),
(651,1700,l)
);
},
{
closed = 1;
nodes = (
(651,0,l),
(2494,0,l),
(2494,499,l),
(651,499,l)
);
}
);
width = 4083;
}
);
metricLeft = H;
metricRight = O;
unicode = 68;
},
{
glyphname = E;
kernLeft = H;
kernRight = E;
lastChange = "2025-02-10 10:45:43 +0000";
layers = (
{
layerId = m01;
shapes = (
{
pos = (103,-661);
ref = "comp-1";
},
{
pos = (103,539);
ref = "comp-1";
},
{
pos = (560,701);
ref = dot.part;
},
{
closed = 1;
nodes = (
(710,601,l),
(1143,601,l),
(1143,1100,l),
(710,1100,l)
);
},
{
pos = (0,1);
ref = "STEM-two.part";
}
);
width = 1942;
},
{
layerId = "BE12DD55-7D13-4A7B-AFE0-E30529788D84";
shapes = (
{
pos = (186,-700);
ref = "comp-1";
},
{
pos = (171,501);
ref = "comp-1";
},
{
pos = (2098,650);
ref = dot.part;
},
{
closed = 1;
nodes = (
(609,600,l),
(2757,600,l),
(2757,1100,l),
(609,1100,l)
);
},
{
ref = "STEM-two.part";
}
);
width = 3735;
}
);
metricLeft = H;
metricRight = "=unit*.8";
unicode = 69;
},
{
glyphname = F;
kernLeft = H;
kernRight = F;
lastChange = "2025-02-10 10:31:52 +0000";
layers = (
{
layerId = m01;
shapes = (
{
pos = (110,540);
ref = "comp-1";
},
{
pos = (559,701);
ref = dot.part;
},
{
closed = 1;
nodes = (
(709,601,l),
(1142,601,l),
(1142,1101,l),
(709,1101,l)
);
},
{
ref = "STEM-two.part";
}
);
width = 1889;
},
{
layerId = "BE12DD55-7D13-4A7B-AFE0-E30529788D84";
shapes = (
{
pos = (181,501);
ref = "comp-1";
},
{
pos = (2096,651);
ref = dot.part;
},
{
closed = 1;
nodes = (
(607,601,l),
(2755,601,l),
(2755,1100,l),
(607,1100,l)
);
},
{
ref = "STEM-two.part";
}
);
width = 3670;
}
);
metricLeft = H;
metricRight = "=unit*.6";
unicode = 70;
},
{
glyphname = G;
kernLeft = O;
kernRight = G;
lastChange = "2025-02-10 10:48:19 +0000";
layers = (
{
layerId = m01;
shapes = (
{
alignment = -1;
pos = (-120,0);
ref = "hal-oval.part";
},
{
pos = (704,699);
ref = dot.part;
},
{
pos = (883,699);
ref = dot.part;
},
{
closed = 1;
nodes = (
(1305,599,l),
(1492,599,l),
(1492,1099,l),
(1305,1099,l)
);
},
{
pos = (890,100);
ref = dot.part;
},
{
closed = 1;
nodes = (
(987,0,l),
(1505,0,l),
(1505,500,l),
(987,500,l)
);
},
{
alignment = -1;
pos = (1083,299);
ref = dot.part;
},
{
alignment = -1;
pos = (1083,501);
ref = dot.part;
},
{
pos = (377,539);
ref = "comp-2";
}
);
width = 2133;
},
{
layerId = "BE12DD55-7D13-4A7B-AFE0-E30529788D84";
shapes = (
{
alignment = -1;
pos = (-120,0);
ref = "hal-oval.part";
},
{
pos = (929,647);
ref = dot.part;
},
{
pos = (2532,647);
ref = dot.part;
},
{
closed = 1;
nodes = (
(1639,597,l),
(3151,597,l),
(3151,1096,l),
(1639,1096,l)
);
},
{
pos = (2527,51);
ref = dot.part;
},
{
closed = 1;
nodes = (
(1725,1,l),
(3146,1,l),
(3146,501,l),
(1725,501,l)
);
},
{
alignment = -1;
pos = (2739,249);
ref = dot.part;
},
{
alignment = -1;
pos = (2739,451);
ref = dot.part;
},
{
pos = (666,500);
ref = "comp-2";
}
);
width = 3889;
}
);
metricLeft = O;
metricRight = C;
unicode = 71;
},
{
glyphname = J;
kernLeft = U;
kernRight = U;
lastChange = "2025-02-10 10:49:24 +0000";
layers = (
{
layerId = m01;
shapes = (
{
alignment = -1;
pos = (-30,599);
ref = dot.part;
},
{
alignment = -1;
pos = (71,398);
ref = dot.part;
},
{
pos = (1550,99);
ref = dot.part;
scale = (-1,1);
},
{
closed = 1;
nodes = (
(945,498,l),
(945,-1,l),
(1295,-1,l),
(1295,498,l)
);
},
{
pos = (47,1301);
ref = dot.part;
},
{
closed = 1;
nodes = (
(644,1201,l),
(1666,1201,l),
(1666,1700,l),
(644,1700,l)
);
},
{
pos = (2297,1);
ref = "half-U.part";
scale = (-1,1);
}
);
width = 2267;
},
{
layerId = "BE12DD55-7D13-4A7B-AFE0-E30529788D84";
shapes = (
{
alignment = -1;
pos = (-17,551);
ref = dot.part;
},
{
alignment = -1;
pos = (282,250);
ref = dot.part;
},
{
pos = (1882,49);
ref = dot.part;
scale = (-1,1);
},
{
closed = 1;
nodes = (
(1242,498,l),
(1242,-1,l),
(2577,-1,l),
(2577,498,l)
);
},
{
pos = (-30,1248);
ref = dot.part;
},
{
closed = 1;
nodes = (
(567,1198,l),
(3371,1198,l),
(3371,1697,l),
(567,1697,l)
);
},
{
pos = (4082,0);
ref = "half-U.part";
scale = (-1,1);
}
);
width = 4052;
}
);
metricLeft = U;
metricRight = U;
unicode = 74;
},
{
glyphname = K;
kernLeft = H;
kernRight = K;
lastChange = "2025-02-10 10:58:43 +0000";
layers = (
{
layerId = m01;
shapes = (
{
alignment = -1;
pos = (1010,299);
ref = dot.part;
},
{
alignment = -1;
pos = (807,500);
ref = dot.part;
},
{
alignment = -1;
pos = (962,1400);
ref = dot.part;
scale = (1,-1);
},
{
alignment = -1;
pos = (807,1198);
ref = dot.part;
scale = (1,-1);
},
{
alignment = -1;
pos = (1140,1599);
ref = dot.part;
scale = (1,-1);
},
{
alignment = -1;
pos = (1205,400);
ref = dot.part;
scale = (1,-1);
},
{
closed = 1;
nodes = (
(607,599,l),
(1411,599,l),
(1411,1098,l),
(607,1098,l)
);
},
{
ref = "STEM-two.part";
}
);
width = 2285;
},
{
hints = (
{
place = (2595,30);
type = Stem;
}
);
layerId = "BE12DD55-7D13-4A7B-AFE0-E30529788D84";
shapes = (
{
alignment = -1;
pos = (2479,250);
ref = dot.part;
},
{
alignment = -1;
pos = (2081,451);
ref = dot.part;
},
{
alignment = -1;
pos = (2484,1450);
ref = dot.part;
scale = (1,-1);
},
{
alignment = -1;
pos = (2086,1249);
ref = dot.part;
scale = (1,-1);
},
{
alignment = -1;
pos = (2877,1650);
ref = dot.part;
scale = (1,-1);
},
{
alignment = -1;
pos = (2881,51);
ref = dot.part;
},
{
closed = 1;
nodes = (
(658,598,l),
(2761,598,l),
(2761,1098,l),
(658,1098,l)
);
},
{
ref = "STEM-two.part";
}
);
width = 4061;
}
);
metricLeft = H;
metricRight = X;
unicode = 75;
},
{
glyphname = N;
kernLeft = H;
kernRight = H;
lastChange = "2025-02-10 11:00:13 +0000";
layers = (
{
layerId = m01;
shapes = (
{
alignment = -1;
pos = (0,702);
ref = dot.part;
},
{
alignment = -1;
pos = (0,1101);
ref = dot.part;
},
{
alignment = -1;
pos = (0,401);
ref = dot.part;
},
{
alignment = -1;
pos = (0,99);
ref = dot.part;
},
{
alignment = -1;
pos = (1597,700);
ref = dot.part;
},
{
alignment = -1;
pos = (1599,1000);
ref = dot.part;
},
{
alignment = -1;
pos = (1602,1300);
ref = dot.part;
},
{
alignment = -1;
pos = (1602,299);
ref = dot.part;
},
{
alignment = -1;
pos = (799,701);
ref = dot.part;
},
{
alignment = -1;
pos = (736,895);
ref = dot.part;
},
{
alignment = -1;
pos = (670,1098);
ref = dot.part;
},
{
alignment = -1;
pos = (874,500);
ref = dot.part;
},
{
pos = (196,1300);
ref = dot.part;
},
{
pos = (501,1300);
ref = dot.part;
},
{
alignment = -1;
pos = (927,299);
ref = dot.part;
},
{
closed = 1;
nodes = (
(795,1200,l),
(1105,1200,l),
(1105,1700,l),
(795,1700,l)
);
},
{
pos = (1065,100);
ref = dot.part;
},
{
pos = (1403,100);
ref = dot.part;
},
{
closed = 1;
nodes = (
(1646,0,l),
(2009,0,l),
(2009,500,l),
(1646,500,l)
);
},
{
alignment = -1;
pos = (0,901);
ref = dot.part;
},
{
alignment = -1;
pos = (1597,500);
ref = dot.part;
}
);
width = 2802;
},
{
layerId = "BE12DD55-7D13-4A7B-AFE0-E30529788D84";
shapes = (
{
alignment = -1;
pos = (0,651);
ref = dot.part;
},
{
alignment = -1;
pos = (0,1051);
ref = dot.part;
},
{
alignment = -1;
pos = (0,346);
ref = dot.part;
},
{
alignment = -1;
pos = (0,50);
ref = dot.part;
},
{
alignment = -1;
pos = (2796,651);
ref = dot.part;
},
{
alignment = -1;
pos = (2796,948);
ref = dot.part;
},
{
alignment = -1;
pos = (2796,1250);
ref = dot.part;
},
{
alignment = -1;
pos = (2796,249);
ref = dot.part;
},
{
alignment = -1;
pos = (1399,651);
ref = dot.part;
},
{
alignment = -1;
pos = (1099,852);
ref = dot.part;
},
{
alignment = -1;
pos = (801,1051);
ref = dot.part;
},
{
alignment = -1;
pos = (1699,450);
ref = dot.part;
},
{
pos = (198,1249);
ref = dot.part;
},
{
pos = (502,1249);
ref = dot.part;
},
{
alignment = -1;
pos = (2002,249);
ref = dot.part;
},
{
closed = 1;
nodes = (
(851,1199,l),
(1121,1199,l),
(1121,1698,l),
(851,1698,l)
);
},
{
pos = (2310,51);
ref = dot.part;
},
{
pos = (2603,51);
ref = dot.part;
},
{
closed = 1;
nodes = (
(2963,1,l),
(3235,1,l),
(3235,500,l),
(2963,500,l)
);
},
{
alignment = -1;
pos = (0,850);
ref = dot.part;
},
{
alignment = -1;
pos = (2796,454);
ref = dot.part;
}
);
width = 4096;
}
);
metricLeft = H;
metricRight = H;
unicode = 78;
},
{
glyphname = S;
kernLeft = S;
kernRight = S;
lastChange = "2025-02-10 11:03:03 +0000";
layers = (
{
layerId = m01;
shapes = (
{
alignment = -1;
pos = (-71,1100);
ref = dot.part;
},
{
alignment = -1;
pos = (939,300);
ref = dot.part;
},
{
pos = (181,700);
ref = dot.part;
},
{
pos = (740,700);
ref = dot.part;
},
{
closed = 1;
nodes = (
(778,600,l),
(1323,600,l),
(1323,1099,l),
(781,1099,l)
);
},
{
alignment = -1;
pos = (-71,900);
ref = dot.part;
},
{
alignment = -1;
pos = (939,501);
ref = dot.part;
},
{
pos = (75,1300);
ref = dot.part;
},
{
pos = (842,1300);
ref = dot.part;
},
{
closed = 1;
nodes = (
(675,1200,l),
(1444,1200,l),
(1444,1699,l),
(675,1699,l)
);
},
{
pos = (-90,99);
ref = dot.part;
},
{
pos = (740,99);
ref = dot.part;
},
{
closed = 1;
nodes = (
(517,-1,l),
(1332,-1,l),
(1332,498,l),
(517,498,l)
);
}
);
width = 2049;
},
{
layerId = "BE12DD55-7D13-4A7B-AFE0-E30529788D84";
shapes = (
{
alignment = -1;
pos = (-88,1053);
ref = dot.part;
},
{
alignment = -1;
pos = (2543,249);
ref = dot.part;
},
{
pos = (73,651);
ref = dot.part;
},
{
pos = (2343,651);
ref = dot.part;
},
{
closed = 1;
nodes = (
(670,601,l),
(3002,601,l),
(3002,1100,l),
(670,1100,l)
);
},
{
alignment = -1;
pos = (-88,850);
ref = dot.part;
},
{
alignment = -1;
pos = (2543,449);
ref = dot.part;
},
{
pos = (64,1249);
ref = dot.part;
},
{
pos = (2384,1249);
ref = dot.part;
},
{
closed = 1;
nodes = (
(661,1199,l),
(3043,1199,l),
(3043,1698,l),
(661,1698,l)
);
},
{
pos = (-90,51);
ref = dot.part;
},
{
pos = (2334,51);
ref = dot.part;
},
{
closed = 1;
nodes = (
(557,1,l),
(2993,1,l),
(2993,500,l),
(557,500,l)
);
}
);
width = 3753;
}
);
metricLeft = "=unit*.7";
metricRight = "=unit*.7";
unicode = 83;
},
{
glyphname = T;
kernLeft = T;
kernRight = T;
lastChange = "2025-02-10 11:03:31 +0000";
layers = (
{
layerId = m01;
shapes = (
{
alignment = -1;
pos = (314,0);
ref = STEM.part;
},
{
pos = (-180,1300);
ref = dot.part;
},
{
pos = (820,1300);
ref = dot.part;
},
{
closed = 1;
nodes = (
(420,1200,l),
(1428,1200,l),
(1428,1700,l),
(420,1700,l)
);
}
);
width = 1840;
},
{
layerId = "BE12DD55-7D13-4A7B-AFE0-E30529788D84";
shapes = (
{
alignment = -1;
pos = (1125,0);
ref = STEM.part;
},
{
pos = (-180,1250);
ref = dot.part;
},
{
pos = (2429,1250);
ref = dot.part;
},
{
closed = 1;
nodes = (
(417,1200,l),
(3088,1200,l),
(3088,1699,l),
(417,1699,l)
);
}
);
width = 3549;
}
);
metricLeft = "=unit*0.4";
metricRight = "=unit*0.4";
unicode = 84;
},
{
glyphname = X;
kernLeft = X;
kernRight = X;
lastChange = "2025-02-10 09:46:03 +0000";
layers = (
{
layerId = m01;
shapes = (
{
alignment = -1;
pos = (888,401);
ref = dot.part;
},
{
alignment = -1;
pos = (856,1299);
ref = dot.part;
scale = (1,-1);
},
{
alignment = -1;
pos = (996,1599);
ref = dot.part;
scale = (1,-1);
},
{
alignment = -1;
pos = (1057,397);
ref = dot.part;
scale = (1,-1);
},
{
closed = 1;
nodes = (
(647,600,l),
(1488,600,l),
(1488,1100,l),
(647,1100,l)
);
},
{
alignment = -1;
pos = (1249,401);
ref = dot.part;
scale = (-1,1);
},
{
alignment = -1;
angle = 180;
pos = (1281,1299);
ref = dot.part;
},
{
alignment = -1;
angle = 180;
pos = (1141,1599);
ref = dot.part;
},
{
alignment = -1;
angle = 180;
pos = (1080,397);
ref = dot.part;
}
);
width = 2137;
},
{
layerId = "BE12DD55-7D13-4A7B-AFE0-E30529788D84";
shapes = (
{
alignment = -1;
pos = (2347,351);
ref = dot.part;
},
{
alignment = -1;
pos = (2350,1347);
ref = dot.part;
scale = (1,-1);
},
{
alignment = -1;
pos = (2748,1649);
ref = dot.part;
scale = (1,-1);
},
{
alignment = -1;
pos = (2750,50);
ref = dot.part;
},
{
closed = 1;
nodes = (
(884,599,l),
(3052,599,l),
(3052,1099,l),
(884,1099,l)
);
},
{
alignment = -1;
pos = (1583,351);
ref = dot.part;
scale = (-1,1);
},
{
alignment = -1;
angle = 180;
pos = (1580,1347);
ref = dot.part;
},
{
alignment = -1;
angle = 180;
pos = (1182,1649);
ref = dot.part;
},
{
alignment = -1;
pos = (1180,50);
ref = dot.part;
scale = (-1,1);
}
);
width = 3930;
}
);
metricLeft = "=unit*.6";
metricRight = "=unit*.6";
unicode = 88;
},
{
glyphname = Z;
kernLeft = Z;
kernRight = Z;
lastChange = "2025-02-10 09:57:34 +0000";
layers = (
{
layerId = m01;
shapes = (
{
alignment = -1;
pos = (1915,1000);
ref = dot.part;
scale = (-1,1);
},
{
alignment = -1;
pos = (1319,399);
ref = dot.part;
scale = (-1,1);
},
{
pos = (-35,1300);
ref = dot.part;
},
{
pos = (951,1300);
ref = dot.part;
},
{
closed = 1;
nodes = (
(562,1201,l),
(1544,1201,l),
(1544,1700,l),
(562,1700,l)
);
},
{
pos = (-90,100);
ref = dot.part;
},
{
pos = (958,100);
ref = dot.part;
},
{
closed = 1;
nodes = (
(507,0,l),
(1563,0,l),
(1563,499,l),
(507,499,l)
);
},
{
pos = (318,700);
ref = dot.part;
},
{
pos = (511,700);
ref = dot.part;
},
{
closed = 1;
nodes = (
(917,600,l),
(1131,600,l),
(1131,1099,l),
(917,1099,l)
);
}
);
width = 2068;
},
{
layerId = "BE12DD55-7D13-4A7B-AFE0-E30529788D84";
shapes = (
{
alignment = -1;
pos = (3812,954);
ref = dot.part;
scale = (-1,1);
},
{
alignment = -1;
pos = (1408,348);
ref = dot.part;
scale = (-1,1);
},
{
pos = (-12,1248);
ref = dot.part;
},
{
pos = (2716,1248);
ref = dot.part;
},
{
closed = 1;
nodes = (
(585,1198,l),
(3342,1198,l),
(3342,1697,l),
(585,1697,l)
);
},
{
pos = (-90,49);
ref = dot.part;
},
{
pos = (2702,49);
ref = dot.part;
},
{
closed = 1;
nodes = (
(507,-1,l),
(3361,-1,l),
(3361,498,l),
(507,498,l)
);
},
{
pos = (505,649);
ref = dot.part;
},
{
pos = (2107,649);
ref = dot.part;
},
{
closed = 1;
nodes = (
(1102,599,l),
(2752,599,l),
(2752,1098,l),
(1102,1098,l)
);
}
);
width = 3926;
}
);
metricLeft = "=unit*.7";
metricRight = "=unit*.7";
unicode = 90;
},
{
glyphname = P.ss01;
kernLeft = H;
kernRight = B;
lastChange = "2025-02-10 07:12:12 +0000";
layers = (
{
layerId = m01;
shapes = (
{
closed = 1;
nodes = (
(300,1450,ls),
(300,1315,o),
(389,1200,o),
(596,1200,cs),
(1279,1200,ls),
(1465,1200,o),
(1551,1315,o),
(1551,1450,cs),
(1551,1483,ls),
(1551,1597,o),
(1465,1700,o),
(1279,1700,cs),
(596,1700,ls),
(389,1700,o),
(300,1597,o),
(300,1483,cs)
);
},
{
pos = (41,-263);
ref = "comp-1";
},
{
alignment = -1;
ref = STEM.part;
},
{
alignment = -1;
pos = (920,898);
ref = dot.part;
},
{
alignment = -1;
pos = (920,1099);
ref = dot.part;
},
{
alignment = -1;
pos = (920,704);
ref = dot.part;
}
);
width = 2000;
},
{
layerId = "BE12DD55-7D13-4A7B-AFE0-E30529788D84";
shapes = (
{
closed = 1;
nodes = (
(392,1450,ls),
(392,1315,o),
(481,1200,o),
(688,1200,cs),
(3136,1200,ls),
(3322,1200,o),
(3408,1315,o),
(3408,1450,cs),
(3408,1483,ls),
(3408,1597,o),
(3322,1700,o),
(3136,1700,cs),
(688,1700,ls),
(481,1700,o),
(392,1597,o),
(392,1483,cs)
);
},
{
pos = (104,-305);
ref = "comp-1";
},
{
alignment = -1;
ref = STEM.part;
},
{
alignment = -1;
pos = (2752,848);
ref = dot.part;
},
{
alignment = -1;
pos = (2752,1049);
ref = dot.part;
},
{
alignment = -1;
pos = (2752,652);
ref = dot.part;
}
);
width = 3932;
}
);
metricLeft = H;
metricRight = O;
},
{
glyphname = "Zhe-cy";
kernLeft = X;
kernRight = X;
lastChange = "2025-02-10 11:10:46 +0000";
layers = (
{
layerId = m01;
shapes = (
{
alignment = -1;
pos = (739,998);
ref = dot.part;
},
{
alignment = -1;
pos = (739,1300);
ref = dot.part;
},
{
alignment = -1;
pos = (739,400);
ref = dot.part;
},
{
alignment = -1;
pos = (739,100);
ref = dot.part;
},
{
alignment = -1;
pos = (1434,401);
ref = dot.part;
},
{
alignment = -1;
pos = (1422,1299);
ref = dot.part;
scale = (1,-1);
},
{
alignment = -1;
pos = (1562,1600);
ref = dot.part;
scale = (1,-1);
},
{
alignment = -1;
pos = (1603,400);
ref = dot.part;
scale = (1,-1);
},
{
alignment = -1;
pos = (1249,401);
ref = dot.part;
scale = (-1,1);
},
{
alignment = -1;
angle = 180;
pos = (1261,1299);
ref = dot.part;
},
{
alignment = -1;
angle = 180;
pos = (1121,1600);
ref = dot.part;
},
{
alignment = -1;
angle = 180;
pos = (1080,400);
ref = dot.part;
},
{
closed = 1;
nodes = (
(649,600,l),
(2034,600,l),
(2034,1100,l),
(649,1100,l)
);
}
);
width = 2683;
},
{
layerId = "BE12DD55-7D13-4A7B-AFE0-E30529788D84";
shapes = (
{
alignment = -1;
pos = (1454,949);
ref = dot.part;
},
{
alignment = -1;
pos = (1454,1250);
ref = dot.part;
},
{
alignment = -1;
pos = (1454,348);
ref = dot.part;
},
{
alignment = -1;
pos = (1454,50);
ref = dot.part;
},
{
alignment = -1;
pos = (2670,352);
ref = dot.part;
},
{
alignment = -1;
pos = (2673,1348);
ref = dot.part;
scale = (1,-1);
},
{
alignment = -1;
pos = (3071,1650);
ref = dot.part;
scale = (1,-1);
},
{
alignment = -1;
pos = (3073,51);
ref = dot.part;
},
{
alignment = -1;
pos = (1583,352);
ref = dot.part;
scale = (-1,1);
},
{
alignment = -1;
angle = 180;
pos = (1580,1348);
ref = dot.part;
},
{
alignment = -1;
angle = 180;
pos = (1182,1650);
ref = dot.part;
},
{
alignment = -1;
pos = (1180,51);
ref = dot.part;
scale = (-1,1);
},
{
closed = 1;
nodes = (
(878,600,l),
(3375,600,l),
(3375,1100,l),
(878,1100,l)
);
}
);
width = 4253;
}
);
metricLeft = O;
metricRight = O;
unicode = 1046;
},
{
glyphname = "Ze-cy";
kernLeft = "Ze-cy";
kernRight = B;
lastChange = "2025-02-10 11:11:41 +0000";
layers = (
{
layerId = m01;
shapes = (
{
alignment = -1;
pos = (885,299);
ref = dot.part;
},
{
alignment = -1;
pos = (885,501);
ref = dot.part;
},
{
alignment = -1;
pos = (885,902);
ref = dot.part;
},
{
alignment = -1;
pos = (885,1101);
ref = dot.part;
},
{
pos = (188,-61);
ref = "comp-2";
},
{
pos = (-120,1300);
ref = dot.part;
},
{
pos = (687,1300);
ref = dot.part;
},
{
closed = 1;
nodes = (
(477,1200,l),
(1280,1200,l),
(1280,1700,l),
(477,1700,l)
);
},
{
pos = (-120,100);
ref = dot.part;
},
{
pos = (687,100);
ref = dot.part;
},
{
closed = 1;
nodes = (
(477,0,l),
(1280,0,l),
(1280,500,l),
(477,500,l)
);
}
);
width = 2025;
},
{
layerId = "BE12DD55-7D13-4A7B-AFE0-E30529788D84";
shapes = (
{
alignment = -1;
pos = (2462,247);
ref = dot.part;
},
{
alignment = -1;
pos = (2462,449);
ref = dot.part;
},
{
alignment = -1;
pos = (2462,850);
ref = dot.part;
},
{
alignment = -1;
pos = (2462,1049);
ref = dot.part;
},
{
pos = (180,-99);
ref = "comp-2";
},
{
pos = (-120,1251);
ref = dot.part;
},
{
pos = (2189,1251);
ref = dot.part;
},
{
closed = 1;
nodes = (
(477,1201,l),
(2848,1201,l),
(2848,1700,l),
(477,1700,l)
);
},
{
pos = (-120,50);
ref = dot.part;
},
{
pos = (2189,50);
ref = dot.part;
},
{
closed = 1;
nodes = (
(477,0,l),
(2848,0,l),
(2848,499,l),
(477,499,l)
);
}
);
width = 3702;
}
);
metricLeft = "=unit*.6";
metricRight = B;
unicode = 1047;
},
{
glyphname = "Pe-cy";
kernLeft = H;
kernRight = H;
lastChange = "2025-02-10 11:14:04 +0000";
layers = (
{
layerId = m01;
shapes = (
{
alignment = -1;
ref = STEM.part;
},
{
alignment = -1;
pos = (999,0);
ref = STEM.part;
},
{
closed = 1;
nodes = (
(602,1200,l),
(1607,1200,l),
(1607,1700,l),
(602,1700,l)
);
}
);
width = 2199;
},
{
layerId = "BE12DD55-7D13-4A7B-AFE0-E30529788D84";
shapes = (
{
alignment = -1;
ref = STEM.part;
},
{
alignment = -1;
pos = (2605,0);
ref = STEM.part;
},
{
closed = 1;
nodes = (
(756,1200,l),
(3127,1200,l),
(3127,1700,l),
(756,1700,l)
);
}
);
width = 3905;
}
);
metricLeft = H;
metricRight = H;
unicode = 1055;
},
{
glyphname = "U-cy";
kernLeft = "U-cy";
kernRight = "U-cy";
lastChange = "2025-02-10 11:53:57 +0000";
layers = (
{
layerId = m01;
shapes = (
{
alignment = -1;
pos = (115,701);
ref = dot.part;
},
{
alignment = -1;
pos = (59,902);
ref = dot.part;
},
{
alignment = -1;
pos = (-16,1101);
ref = dot.part;
},
{
alignment = -1;
pos = (-90,1300);
ref = dot.part;
},
{
closed = 1;
nodes = (
(1517,736,o),
(1462,801,o),
(1267,801,cs),
(977,801,ls),
(782,801,o),
(727,736,o),
(727,601,cs),
(727,503,ls),
(727,368,o),
(782,301,o),
(977,301,cs),
(1267,301,ls),
(1462,301,o),
(1517,368,o),
(1517,503,cs),
(1517,601,ls)
);
},
{
pos = (213,97);
ref = dot.part;
},
{
pos = (488,97);
ref = dot.part;
},
{
closed = 1;
nodes = (
(794,-3,l),
(1103,-3,l),
(1103,497,l),
(794,497,l)
);
},
{
alignment = -1;
pos = (2019,701);
ref = dot.part;
scale = (-1,1);
},
{
alignment = -1;
pos = (2075,902);
ref = dot.part;
scale = (-1,1);
},
{
alignment = -1;
pos = (2150,1101);
ref = dot.part;
scale = (-1,1);
},
{
alignment = -1;
pos = (2224,1300);
ref = dot.part;
scale = (-1,1);
}
);
width = 2104;
},
{
layerId = "BE12DD55-7D13-4A7B-AFE0-E30529788D84";
shapes = (
{
alignment = -1;
pos = (809,650);
ref = dot.part;
},
{
alignment = -1;
pos = (509,850);
ref = dot.part;
},
{
alignment = -1;
pos = (211,1050);
ref = dot.part;
},
{
alignment = -1;
pos = (-90,1250);
ref = dot.part;
},
{
closed = 1;
nodes = (
(2499,735,o),
(2435,800,o),
(2269,800,cs),
(1731,800,ls),
(1565,800,o),
(1501,735,o),
(1501,600,cs),
(1501,500,ls),
(1501,365,o),
(1565,300,o),
(1731,300,cs),
(2269,300,ls),
(2435,300,o),
(2499,365,o),
(2499,500,cs),
(2499,600,ls)
);
},
{
pos = (400,50);
ref = dot.part;
},
{
pos = (1200,50);
ref = dot.part;
},
{
closed = 1;
nodes = (
(1053,0,l),
(1819,0,l),
(1819,500,l),
(1053,500,l)
);
},
{
alignment = -1;
pos = (3043,650);
ref = dot.part;
scale = (-1,1);
},
{
alignment = -1;
pos = (3353,850);
ref = dot.part;
scale = (-1,1);
},
{
alignment = -1;
pos = (3621,1050);
ref = dot.part;
scale = (-1,1);
},
{
alignment = -1;
pos = (3922,1250);
ref = dot.part;
scale = (-1,1);
}
);
width = 3802;
}
);
metricLeft = "=unit*.7";
metricRight = "=unit*.6";
unicode = 1059;
},
{
glyphname = "Ef-cy";
kernLeft = "Ef-cy";
kernRight = P;
lastChange = "2025-02-10 10:44:35 +0000";
layers = (
{
layerId = m01;
shapes = (
{
alignment = -1;
pos = (721,1301);
ref = dot.part;
},
{
alignment = -1;
pos = (721,399);
ref = dot.part;
},
{
alignment = -1;
pos = (721,100);
ref = dot.part;
},
{
alignment = -1;
pos = (-180,699);
ref = dot.part;
},
{
alignment = -1;
pos = (-180,899);
ref = dot.part;
},
{
pos = (20,1098);
ref = dot.part;
},
{
pos = (1413,1098);
ref = dot.part;
},
{
closed = 1;
nodes = (
(620,998,l),
(2014,998,l),
(2014,1497,l),
(620,1497,l)
);
},
{
alignment = -1;
pos = (1619,699);
ref = dot.part;
},
{
alignment = -1;
pos = (1619,899);
ref = dot.part;
},
{
pos = (20,500);
ref = dot.part;
},
{
pos = (1413,500);
ref = dot.part;
},
{
closed = 1;
nodes = (
(620,400,l),
(2014,400,l),
(2014,899,l),
(620,899,l)
);
},
{
alignment = -1;
pos = (721,800);
ref = dot.part;
}
);
width = 2639;
},
{
layerId = "BE12DD55-7D13-4A7B-AFE0-E30529788D84";
shapes = (
{
alignment = -1;
pos = (1422,1253);
ref = dot.part;
},
{
alignment = -1;
pos = (1422,351);
ref = dot.part;
},
{
alignment = -1;
pos = (1422,51);
ref = dot.part;
},
{
alignment = -1;
pos = (-180,646);
ref = dot.part;
},
{
alignment = -1;
pos = (-180,845);
ref = dot.part;
},
{
pos = (22,1044);
ref = dot.part;
},
{
pos = (2819,1046);
ref = dot.part;
},
{
closed = 1;
nodes = (
(672,997,l),
(3468,997,l),
(3468,1496,l),
(672,1496,l)
);
},
{
alignment = -1;
pos = (3015,646);
ref = dot.part;
},
{
alignment = -1;
pos = (3015,848);
ref = dot.part;
},
{
pos = (22,443);
ref = dot.part;
},
{
pos = (2819,443);
ref = dot.part;
},
{
closed = 1;
nodes = (
(672,395,l),
(3468,395,l),
(3468,894,l),
(672,894,l)
);
},
{
alignment = -1;
pos = (1422,752);
ref = dot.part;
}
);
width = 4135;
}
);
metricLeft = "=unit*.4";
metricRight = "=unit*.4";
unicode = 1060;
},
{
glyphname = "Sha-cy";
kernLeft = H;
kernRight = H;
lastChange = "2025-02-10 07:08:05 +0000";
layers = (
{
layerId = m01;
shapes = (
{
alignment = -1;
pos = (0,1700);
ref = STEM.part;
scale = (1,-1);
},
{
alignment = -1;
pos = (1600,1700);
ref = STEM.part;
scale = (1,-1);
},
{
closed = 1;
nodes = (
(2193,0,l),
(2193,501,l),
(599,501,l),
(599,0,l)
);
},
{
alignment = -1;
pos = (803,1700);
ref = STEM.part;
scale = (1,-1);
}
);
width = 2800;
},
{
layerId = "BE12DD55-7D13-4A7B-AFE0-E30529788D84";
shapes = (
{
alignment = -1;
pos = (0,1700);
ref = STEM.part;
scale = (1,-1);
},
{
alignment = -1;
pos = (2903,1700);
ref = STEM.part;
scale = (1,-1);
},
{
closed = 1;
nodes = (
(3552,0,l),
(3552,499,l),
(634,499,l),
(634,0,l)
);
},
{
alignment = -1;
pos = (1450,1700);
ref = STEM.part;
scale = (1,-1);
}
);
width = 4203;
}
);
metricLeft = H;
metricRight = H;
unicode = 1064;
},
{
glyphname = "Hardsign-cy";
kernLeft = "Hardsign-cy";
kernRight = "Softsign-cy";
lastChange = "2025-02-10 11:19:20 +0000";
layers = (
{
layerId = m01;
shapes = (
{
pos = (189,1);
ref = "Softsign-cy";
},
{
pos = (-180,1300);
ref = dot.part;
},
{
pos = (121,1300);
ref = dot.part;
},
{
closed = 1;
nodes = (
(422,1200,l),
(736,1200,l),
(736,1700,l),
(422,1700,l)
);
}
);
width = 2242;
},
{
layerId = "BE12DD55-7D13-4A7B-AFE0-E30529788D84";
shapes = (
{
pos = (483,0);
ref = "Softsign-cy";
},
{
pos = (-180,1249);
ref = dot.part;
},
{
pos = (483,1249);
ref = dot.part;
},
{
closed = 1;
nodes = (
(480,1199,l),
(1102,1199,l),
(1102,1698,l),
(480,1698,l)
);
}
);
width = 4328;
}
);
metricLeft = "De-cy";
metricRight = P;
unicode = 1066;
},
{
glyphname = "Ereversed-cy";
kernLeft = "Ereversed-cy";
kernRight = O;
lastChange = "2025-02-10 11:19:25 +0000";
layers = (
{
layerId = "BE12DD55-7D13-4A7B-AFE0-E30529788D84";
shapes = (
{
pos = (1003,649);
ref = dot.part;
},
{
pos = (4067,0);
ref = C;
scale = (-1,1);
},
{
closed = 1;
nodes = (
(1656,599,l),
(3414,599,l),
(3414,1098,l),
(1656,1098,l)
);
}
);
width = 4067;
},
{
layerId = m01;
shapes = (
{
pos = (562,700);
ref = dot.part;
},
{
pos = (2223,0);
ref = C;
scale = (-1,1);
},
{
closed = 1;
nodes = (
(1143,600,l),
(1634,600,l),
(1634,1100,l),
(1143,1100,l)
);
}
);
width = 2223;
}
);
metricLeft = "=unit*.8";
metricRight = O;
unicode = 1069;
},
{
glyphname = "Yu-cy";
kernLeft = H;
kernRight = zero;
lastChange = "2025-02-10 10:43:27 +0000";
layers = (
{
layerId = m01;
shapes = (
{
alignment = -1;
pos = (737,1102);
ref = dot.part;
},
{
alignment = -1;
pos = (739,301);
ref = dot.part;
},
{
alignment = -1;
pos = (938,-660);
ref = "comp-3";
},
{
alignment = -1;
pos = (938,540);
ref = "comp-3";
},
{
alignment = -1;
pos = (2840,0);
ref = "hal-oval.part";
scale = (-1,1);
},
{
pos = (567,700);
ref = dot.part;
},
{
closed = 1;
nodes = (
(581,600,l),
(1182,600,l),
(1182,1100,l),
(581,1100,l)
);
},
{
ref = "STEM-two.part";
}
);
width = 2720;
},
{
layerId = "BE12DD55-7D13-4A7B-AFE0-E30529788D84";
shapes = (
{
alignment = -1;
pos = (1266,1052);
ref = dot.part;
},
{
alignment = -1;
pos = (1266,250);
ref = dot.part;
},
{
alignment = -1;
pos = (1563,-702);
ref = "comp-3";
},
{
alignment = -1;
pos = (1563,500);
ref = "comp-3";
},
{
alignment = -1;
pos = (4963,0);
ref = "hal-oval.part";
scale = (-1,1);
},
{
pos = (1065,649);
ref = dot.part;
},
{
closed = 1;
nodes = (
(654,599,l),
(1684,599,l),
(1684,1098,l),
(654,1098,l)
);
},
{
ref = "STEM-two.part";
}
);
width = 4843;
}
);
metricLeft = H;
metricRight = O;
unicode = 1070;
},
{
glyphname = "Ef-cy.ss01";
kernLeft = "Ef-cy";
kernRight = "Ef-cy";
lastChange = "2025-02-10 11:20:35 +0000";
layers = (
{
layerId = m01;
shapes = (
{
pos = (595,1);
ref = STEM.part;
},
{
alignment = -1;
pos = (-180,801);
ref = dot.part;
},
{
alignment = -1;
pos = (-180,1001);
ref = dot.part;
},
{
pos = (52,1300);
ref = dot.part;
},
{
pos = (1154,1300);
ref = dot.part;
},
{
closed = 1;
nodes = (
(643,1200,l),
(1768,1200,l),
(1768,1700,l),
(643,1700,l)
);
},
{
alignment = -1;
pos = (1380,801);
ref = dot.part;
},
{
alignment = -1;
pos = (1380,1001);
ref = dot.part;
},
{
pos = (52,501);
ref = dot.part;
},
{
pos = (1154,501);
ref = dot.part;
},
{
closed = 1;
nodes = (
(643,401,l),
(1768,401,l),
(1768,901,l),
(643,901,l)
);
}
);
width = 2400;
},
{
layerId = "BE12DD55-7D13-4A7B-AFE0-E30529788D84";
shapes = (
{
pos = (1413,1);
ref = STEM.part;
},
{
alignment = -1;
pos = (-180,750);
ref = dot.part;
},
{
alignment = -1;
pos = (-180,949);
ref = dot.part;
},
{
pos = (22,1248);
ref = dot.part;
},
{
pos = (2800,1250);
ref = dot.part;
},
{
closed = 1;
nodes = (
(676,1201,l),
(3449,1201,l),
(3449,1700,l),
(676,1700,l)
);
},
{
alignment = -1;
pos = (2996,750);
ref = dot.part;
},
{
alignment = -1;
pos = (2996,952);
ref = dot.part;
},
{
pos = (22,447);
ref = dot.part;
},
{
pos = (2800,447);
ref = dot.part;
},
{
closed = 1;
nodes = (
(676,399,l),
(3449,399,l),
(3449,898,l),
(676,898,l)
);
}
);
width = 4116;
}
);
metricLeft = "Ef-cy";
metricRight = "Ef-cy";
},
{
glyphname = two;
kernLeft = Z;
kernRight = G;
lastChange = "2025-02-10 09:53:48 +0000";
layers = (
{
layerId = m01;
shapes = (
{
alignment = -1;
pos = (1189,402);
ref = dot.part;
scale = (-1,1);
},
{
pos = (-90,98);
ref = dot.part;
},
{
pos = (937,98);
ref = dot.part;
},
{
closed = 1;
nodes = (
(456,-2,l),
(1530,-2,l),
(1530,497,l),
(456,497,l)
);
},
{
pos = (187,696);
ref = dot.part;
},
{
pos = (694,696);
ref = dot.part;
},
{
closed = 1;
nodes = (
(786,596,l),
(1293,596,l),
(1293,1096,l),
(786,1096,l)
);
},
{
pos = (84,539);
ref = "comp-2";
},
{
alignment = -1;
pos = (891,898);
ref = dot.part;
},
{
alignment = -1;
pos = (891,1099);
ref = dot.part;
}
);
width = 2047;
},
{
layerId = "BE12DD55-7D13-4A7B-AFE0-E30529788D84";
shapes = (
{
alignment = -1;
pos = (1211,348);
ref = dot.part;
scale = (-1,1);
},
{
pos = (-90,50);
ref = dot.part;
},
{
pos = (2136,50);
ref = dot.part;
},
{
closed = 1;
nodes = (
(563,0,l),
(2795,0,l),
(2795,499,l),
(563,499,l)
);
},
{
pos = (111,650);
ref = dot.part;
},
{
pos = (1903,650);
ref = dot.part;
},
{
closed = 1;
nodes = (
(764,600,l),
(2552,600,l),
(2552,1099,l),
(764,1099,l)
);
},
{
pos = (22,499);
ref = "comp-2";
},
{
alignment = -1;
pos = (2115,848);
ref = dot.part;
},
{
alignment = -1;
pos = (2115,1049);
ref = dot.part;
}
);
width = 3346;
}
);
metricLeft = Z;
metricRight = Z;
unicode = 50;
},
{
glyphname = three;
kernRight = B;
lastChange = "2025-02-10 08:54:40 +0000";
layers = (
{
layerId = m01;
shapes = (
{
alignment = -1;
pos = (803,999);
ref = dot.part;
},
{
alignment = -1;
pos = (803,397);
ref = dot.part;
},
{
pos = (99,700);
ref = dot.part;
},
{
pos = (604,697);
ref = dot.part;
},
{
closed = 1;
nodes = (
(692,600,l),
(1164,600,l),
(1164,1099,l),
(692,1099,l)
);
},
{
pos = (-120,98);
ref = dot.part;
},
{
pos = (623,98);
ref = dot.part;
},
{
closed = 1;
nodes = (
(477,-2,l),
(1222,-2,l),
(1222,497,l),
(477,497,l)
);
},
{
pos = (-120,1299);
ref = dot.part;
},
{
pos = (623,1299);
ref = dot.part;
},
{
closed = 1;
nodes = (
(477,1199,l),
(1222,1199,l),
(1222,1698,l),
(477,1698,l)
);
}
);
width = 1943;
},
{
layerId = "BE12DD55-7D13-4A7B-AFE0-E30529788D84";
shapes = (
{
alignment = -1;
pos = (1980,951);
ref = dot.part;
},
{
alignment = -1;
pos = (1980,354);
ref = dot.part;
},
{
pos = (137,651);
ref = dot.part;
},
{
pos = (1735,651);
ref = dot.part;
},
{
closed = 1;
nodes = (
(790,601,l),
(2386,601,l),
(2386,1100,l),
(790,1100,l)
);
},
{
pos = (-120,49);
ref = dot.part;
},
{
pos = (1778,49);
ref = dot.part;
},
{
closed = 1;
nodes = (
(533,-1,l),
(2429,-1,l),
(2429,498,l),
(533,498,l)
);
},
{
pos = (-120,1252);
ref = dot.part;
},
{
pos = (1778,1252);
ref = dot.part;
},
{
closed = 1;
nodes = (
(533,1202,l),
(2429,1202,l),
(2429,1701,l),
(533,1701,l)
);
}
);
width = 3220;
}
);
metricLeft = "Ze-cy";
metricRight = B;
unicode = 51;
},
{
glyphname = five;
kernLeft = H;
lastChange = "2025-02-10 11:25:13 +0000";
layers = (
{
layerId = m01;
shapes = (
{
alignment = -1;
angle = 180;
pos = (1170,1298);
ref = dot.part;
},
{
pos = (-30,1600);
ref = dot.part;
scale = (1,-1);
},
{
pos = (730,1600);
ref = dot.part;
scale = (1,-1);
},
{
closed = 1;
nodes = (
(1323,1200,l),
(1323,1700,l),
(586,1700,l),
(586,1200,l)
);
},
{
pos = (-30,1000);
ref = dot.part;
scale = (1,-1);
},
{
pos = (594,1000);
ref = dot.part;
scale = (1,-1);
},
{
closed = 1;
nodes = (
(1193,600,l),
(1193,1100,l),
(577,1100,l),
(577,600,l)
);
},
{
pos = (-16,1160);
ref = "comp-2";
scale = (1,-1);
},
{
alignment = -1;
pos = (791,800);
ref = dot.part;
scale = (1,-1);
},
{
alignment = -1;
pos = (791,599);
ref = dot.part;
scale = (1,-1);
}
);
width = 1901;
},
{
layerId = "BE12DD55-7D13-4A7B-AFE0-E30529788D84";
shapes = (
{
alignment = -1;
angle = 180;
pos = (1270,1350);
ref = dot.part;
},
{
pos = (-30,1648);
ref = dot.part;
scale = (1,-1);
},
{
pos = (1922,1648);
ref = dot.part;
scale = (1,-1);
},
{
closed = 1;
nodes = (
(2581,1199,l),
(2581,1698,l),
(624,1698,l),
(624,1199,l)
);
},
{
pos = (-30,1048);
ref = dot.part;
scale = (1,-1);
},
{
pos = (1866,1048);
ref = dot.part;
scale = (1,-1);
},
{
closed = 1;
nodes = (
(2515,599,l),
(2515,1098,l),
(624,1098,l),
(624,599,l)
);
},
{
pos = (-15,1199);
ref = "comp-2";
scale = (1,-1);
},
{
alignment = -1;
pos = (2078,850);
ref = dot.part;
scale = (1,-1);
},
{
alignment = -1;
pos = (2078,649);
ref = dot.part;
scale = (1,-1);
}
);
width = 3288;
}
);
metricLeft = "=unit*.9";
metricRight = "=unit*.7";
unicode = 53;
},
{
glyphname = seven;
lastChange = "2025-02-10 11:26:17 +0000";
layers = (
{
layerId = m01;
shapes = (
{
alignment = -1;
pos = (500,999);
ref = dot.part;
scale = (1,-1);
},
{
alignment = -1;
pos = (395,797);
ref = dot.part;
scale = (1,-1);
},
{
alignment = -1;
pos = (250,599);
ref = dot.part;
scale = (1,-1);
},
{
alignment = -1;
pos = (250,400);
ref = dot.part;
scale = (1,-1);
},
{
alignment = -1;
pos = (702,1297);
ref = dot.part;
scale = (1,-1);
},
{
pos = (-180,1300);
ref = dot.part;
},
{
pos = (803,1300);
ref = dot.part;
},
{
closed = 1;
nodes = (
(417,1200,l),
(1386,1200,l),
(1386,1700,l),
(417,1700,l)
);
}
);
width = 1823;
},
{
layerId = "BE12DD55-7D13-4A7B-AFE0-E30529788D84";
shapes = (
{
alignment = -1;
pos = (1341,1044);
ref = dot.part;
scale = (1,-1);
},
{
alignment = -1;
pos = (943,852);
ref = dot.part;
scale = (1,-1);
},
{
alignment = -1;
pos = (549,647);
ref = dot.part;
scale = (1,-1);
},
{
alignment = -1;
pos = (149,449);
ref = dot.part;
scale = (1,-1);
},
{
alignment = -1;
pos = (1834,1346);
ref = dot.part;
scale = (1,-1);
},
{
pos = (-180,1252);
ref = dot.part;
},
{
pos = (2129,1252);
ref = dot.part;
},
{
closed = 1;
nodes = (
(417,1202,l),
(2788,1202,l),
(2788,1701,l),
(417,1701,l)
);
}
);
width = 3249;
}
);
metricLeft = T;
metricRight = T;
unicode = 55;
},
{
glyphname = question;
lastChange = "2025-02-10 11:20:48 +0000";
layers = (
{
layerId = m01;
shapes = (
{
pos = (428,696);
ref = dot.part;
},
{
pos = (594,696);
ref = dot.part;
},
{
closed = 1;
nodes = (
(1031,596,l),
(1180,596,l),
(1180,1096,l),
(1031,1096,l)
);
},
{
alignment = -1;
pos = (928,898);
ref = dot.part;
},
{
alignment = -1;
pos = (928,1099);
ref = dot.part;
},
{
pos = (426,100);
ref = dot.part;
},
{
alignment = -1;
pos = (-150,1099);
ref = dot.part;
},
{
pos = (59,1299);
ref = dot.part;
},
{
pos = (732,1299);
ref = dot.part;
},
{
closed = 1;
nodes = (
(662,1199,l),
(1331,1199,l),
(1331,1699,l),
(662,1699,l)
);
}
);
width = 2038;
},
{
layerId = "BE12DD55-7D13-4A7B-AFE0-E30529788D84";
shapes = (
{
pos = (914,650);
ref = dot.part;
},
{
pos = (1633,650);
ref = dot.part;
},
{
closed = 1;
nodes = (
(1562,600,l),
(2300,600,l),
(2300,1100,l),
(1562,1100,l)
);
},
{
alignment = -1;
pos = (2150,848);
ref = dot.part;
},
{
alignment = -1;
pos = (2153,1049);
ref = dot.part;
},
{
pos = (928,50);
ref = dot.part;
},
{
alignment = -1;
pos = (-150,1049);
ref = dot.part;
},
{
pos = (42,1251);
ref = dot.part;
},
{
pos = (1956,1253);
ref = dot.part;
},
{
closed = 1;
nodes = (
(690,1201,l),
(2635,1201,l),
(2635,1701,l),
(690,1701,l)
);
}
);
width = 3363;
}
);
metricLeft = "=unit*.5";
metricRight = two;
unicode = 63;
},
{
glyphname = asterisk;
lastChange = "2025-02-10 08:46:01 +0000";
layers = (
{
layerId = m01;
shapes = (
{
alignment = -1;
pos = (582,997);
ref = dot.part;
},
{
alignment = -1;
pos = (582,1300);
ref = dot.part;
},
{
alignment = -1;
pos = (582,398);
ref = dot.part;
},
{
alignment = -1;
pos = (582,99);
ref = dot.part;
},
{
alignment = -1;
pos = (-118,1000);
ref = dot.part;
},
{
alignment = -1;
pos = (-120,697);
ref = dot.part;
scale = (1,-1);
},
{
alignment = -1;
pos = (2479,998);
ref = dot.part;
scale = (-1,1);
},
{
alignment = -1;
angle = 180;
pos = (2479,699);
ref = dot.part;
},
{
pos = (178,697);
ref = dot.part;
},
{
pos = (976,697);
ref = dot.part;
},
{
closed = 1;
nodes = (
(775,597,l),
(1568,597,l),
(1568,1096,l),
(775,1096,l)
);
}
);
width = 2359;
},
{
layerId = "BE12DD55-7D13-4A7B-AFE0-E30529788D84";
shapes = (
{
alignment = -1;
pos = (682,948);
ref = dot.part;
},
{
alignment = -1;
pos = (682,1250);
ref = dot.part;
},
{
alignment = -1;
pos = (682,349);
ref = dot.part;
},
{
alignment = -1;
pos = (682,50);
ref = dot.part;
},
{
alignment = -1;
pos = (-118,950);
ref = dot.part;
},
{
alignment = -1;
pos = (-120,754);
ref = dot.part;
scale = (1,-1);
},
{
alignment = -1;
pos = (2778,948);
ref = dot.part;
scale = (-1,1);
},
{
alignment = -1;
angle = 180;
pos = (2781,748);
ref = dot.part;
},
{
pos = (180,651);
ref = dot.part;
},
{
pos = (1178,651);
ref = dot.part;
},
{
closed = 1;
nodes = (
(833,601,l),
(1828,601,l),
(1828,1101,l),
(833,1101,l)
);
}
);
width = 2661;
}
);
metricLeft = "Zhe-cy";
metricRight = K;
unicode = 42;
},
{
glyphname = endash;
lastChange = "2025-02-09 07:05:55 +0000";
layers = (
{
layerId = m01;
shapes = (
{
pos = (-180,698);
ref = dot.part;
},
{
pos = (1020,698);
ref = dot.part;
},
{
closed = 1;
nodes = (
(417,598,l),
(1603,598,l),
(1603,1097,l),
(417,1097,l)
);
}
);
width = 2040;
},
{
layerId = "BE12DD55-7D13-4A7B-AFE0-E30529788D84";
shapes = (
{
pos = (-180,652);
ref = dot.part;
},
{
pos = (2318,652);
ref = dot.part;
},
{
closed = 1;
nodes = (
(417,602,l),
(2977,602,l),
(2977,1101,l),
(417,1101,l)
);
}
);
width = 3438;
}
);
metricLeft = T;
metricRight = T;
unicode = 8211;
},
{
glyphname = emdash;
lastChange = "2025-02-09 07:05:55 +0000";
layers = (
{
layerId = m01;
shapes = (
{
pos = (-180,698);
ref = dot.part;
},
{
pos = (1416,698);
ref = dot.part;
},
{
closed = 1;
nodes = (
(417,598,l),
(1999,598,l),
(1999,1097,l),
(417,1097,l)
);
}
);
width = 2436;
},
{
layerId = "BE12DD55-7D13-4A7B-AFE0-E30529788D84";
shapes = (
{
pos = (-180,648);
ref = dot.part;
},
{
pos = (2717,648);
ref = dot.part;
},
{
closed = 1;
nodes = (
(417,598,l),
(3363,598,l),
(3363,1097,l),
(417,1097,l)
);
}
);
width = 3837;
}
);
metricLeft = T;
metricRight = T;
unicode = 8212;
},
{
glyphname = parenleft;
kernLeft = O;
lastChange = "2025-02-10 08:54:40 +0000";
layers = (
{
layerId = m01;
shapes = (
{
alignment = -1;
pos = (77,1101);
ref = dot.part;
},
{
alignment = -1;
pos = (79,300);
ref = dot.part;
},
{
alignment = -1;
pos = (-120,600);
ref = dot.part;
},
{
alignment = -1;
pos = (-120,800);
ref = dot.part;
},
{
pos = (278,98);
ref = dot.part;
},
{
pos = (478,98);
ref = dot.part;
},
{
closed = 1;
nodes = (
(859,-2,l),
(1093,-2,l),
(1093,498,l),
(859,498,l)
);
},
{
pos = (278,1300);
ref = dot.part;
},
{
pos = (478,1300);
ref = dot.part;
},
{
closed = 1;
nodes = (
(859,1200,l),
(1093,1200,l),
(1093,1700,l),
(859,1700,l)
);
}
);
width = 1558;
},
{
layerId = "BE12DD55-7D13-4A7B-AFE0-E30529788D84";
shapes = (
{
alignment = -1;
pos = (86,1052);
ref = dot.part;
},
{
alignment = -1;
pos = (86,250);
ref = dot.part;
},
{
alignment = -1;
pos = (-120,552);
ref = dot.part;
},
{
alignment = -1;
pos = (-120,752);
ref = dot.part;
},
{
pos = (383,48);
ref = dot.part;
},
{
pos = (675,48);
ref = dot.part;
},
{
closed = 1;
nodes = (
(1036,-2,l),
(1314,-2,l),
(1314,497,l),
(1036,497,l)
);
},
{
pos = (383,1250);
ref = dot.part;
},
{
pos = (675,1250);
ref = dot.part;
},
{
closed = 1;
nodes = (
(1036,1200,l),
(1314,1200,l),
(1314,1699,l),
(1036,1699,l)
);
}
);
width = 1855;
}
);
metricLeft = O;
metricRight = "=unit*.6";
unicode = 40;
},
{
glyphname = bracketleft;
lastChange = "2025-02-09 07:05:55 +0000";
layers = (
{
layerId = m01;
shapes = (
{
ref = STEM.part;
},
{
pos = (501,1300);
ref = dot.part;
},
{
pos = (501,100);
ref = dot.part;
},
{
closed = 1;
nodes = (
(600,1199,l),
(1102,1199,l),
(1102,1700,l),
(600,1700,l)
);
},
{
closed = 1;
nodes = (
(600,-2,l),
(1102,-2,l),
(1102,499,l),
(600,499,l)
);
}
);
width = 1551;
},
{
layerId = "BE12DD55-7D13-4A7B-AFE0-E30529788D84";
shapes = (
{
ref = STEM.part;
},
{
pos = (703,1250);
ref = dot.part;
},
{
pos = (703,50);
ref = dot.part;
},
{
closed = 1;
nodes = (
(600,1199,l),
(1354,1199,l),
(1354,1700,l),
(600,1700,l)
);
},
{
closed = 1;
nodes = (
(600,-2,l),
(1354,-2,l),
(1354,499,l),
(600,499,l)
);
}
);
width = 1853;
}
);
metricLeft = H;
metricRight = "=unit*.5";
unicode = 91;
},
{
glyphname = minus;
lastChange = "2025-02-08 12:58:39 +0000";
layers = (
{
layerId = m01;
shapes = (
{
pos = (0,700);
ref = dot.part;
},
{
pos = (1099,700);
ref = dot.part;
},
{
closed = 1;
nodes = (
(597,600,l),
(1682,600,l),
(1682,1099,l),
(597,1099,l)
);
}
);
width = 2299;
},
{
layerId = "BE12DD55-7D13-4A7B-AFE0-E30529788D84";
shapes = (
{
pos = (0,689);
ref = dot.part;
},
{
pos = (2309,689);
ref = dot.part;
},
{
closed = 1;
nodes = (
(597,639,l),
(2968,639,l),
(2968,1138,l),
(597,1138,l)
);
}
);
width = 3609;
}
);
metricLeft = unit;
metricRight = unit;
unicode = 8722;
},
{
glyphname = "comp-1";
lastChange = "2025-02-09 10:39:33 +0000";
layers = (
{
layerId = m01;
shapes = (
{
pos = (0,761);
ref = dot.part;
},
{
pos = (699,761);
ref = dot.part;
},
{
closed = 1;
nodes = (
(597,661,l),
(1282,661,l),
(1282,1161,l),
(597,1161,l)
);
}
);
width = 1899;
},
{
layerId = "BE12DD55-7D13-4A7B-AFE0-E30529788D84";
shapes = (
{
pos = (0,750);
ref = dot.part;
},
{
pos = (2309,750);
ref = dot.part;
},
{
closed = 1;
nodes = (
(597,700,l),
(2968,700,l),
(2968,1200,l),
(597,1200,l)
);
}
);
width = 3609;
}
);
metricLeft = unit;
metricRight = unit;
},
{
glyphname = "comp-2";
lastChange = "2025-02-09 10:39:55 +0000";
layers = (
{
layerId = m01;
shapes = (
{
pos = (0,761);
ref = dot.part;
},
{
pos = (604,761);
ref = dot.part;
},
{
closed = 1;
nodes = (
(597,661,l),
(1196,661,l),
(1196,1161,l),
(597,1161,l)
);
}
);
width = 1804;
},
{
layerId = "BE12DD55-7D13-4A7B-AFE0-E30529788D84";
shapes = (
{
pos = (0,750);
ref = dot.part;
},
{
pos = (1896,750);
ref = dot.part;
},
{
closed = 1;
nodes = (
(653,700,l),
(2546,700,l),
(2546,1200,l),
(653,1200,l)
);
}
);
width = 3196;
}
);
metricLeft = unit;
metricRight = unit;
},
{
glyphname = "comp-3";
lastChange = "2025-02-09 10:40:13 +0000";
layers = (
{
layerId = m01;
shapes = (
{
pos = (0,761);
ref = dot.part;
},
{
pos = (200,761);
ref = dot.part;
},
{
closed = 1;
nodes = (
(581,661,l),
(815,661,l),
(815,1161,l),
(581,1161,l)
);
}
);
width = 1400;
},
{
layerId = "BE12DD55-7D13-4A7B-AFE0-E30529788D84";
shapes = (
{
pos = (0,750);
ref = dot.part;
},
{
pos = (1002,750);
ref = dot.part;
},
{
closed = 1;
nodes = (
(653,700,l),
(1621,700,l),
(1621,1200,l),
(653,1200,l)
);
}
);
width = 2302;
}
);
metricLeft = unit;
metricRight = unit;
},
{
glyphname = unit;
lastChange = "2025-02-06 04:12:27 +0000";
layers = (
{
layerId = m01;
shapes = (
{
closed = 1;
nodes = (
(300,0,l),
(600,0,l),
(600,1800,l),
(300,1800,l)
);
}
);
width = 900;
},
{
layerId = "BE12DD55-7D13-4A7B-AFE0-E30529788D84";
shapes = (
{
closed = 1;
nodes = (
(300,0,l),
(600,0,l),
(600,1800,l),
(300,1800,l)
);
}
);
width = 900;
}
);
},
{
glyphname = "comp-four.part";
lastChange = "2025-02-08 07:20:59 +0000";
layers = (
{
layerId = "BE12DD55-7D13-4A7B-AFE0-E30529788D84";
shapes = (
{
pos = (0,51);
ref = dot.part;
},
{
pos = (1406,51);
ref = dot.part;
},
{
closed = 1;
nodes = (
(653,1,l),
(2029,1,l),
(2029,500,l),
(653,500,l)
);
}
);
width = 2706;
},
{
layerId = m01;
shapes = (
{
pos = (0,761);
ref = dot.part;
},
{
pos = (220,761);
ref = dot.part;
},
{
closed = 1;
nodes = (
(581,661,l),
(825,661,l),
(825,1161,l),
(581,1161,l)
);
}
);
width = 1420;
}
);
metricLeft = unit;
metricRight = unit;
},
{
glyphname = diag.part;
lastChange = "2025-02-10 11:04:28 +0000";
layers = (
{
layerId = m01;
shapes = (
{
alignment = -1;
pos = (165,699);
ref = dot.part;
},
{
alignment = -1;
pos = (81,998);
ref = dot.part;
},
{
alignment = -1;
pos = (0,1300);
ref = dot.part;
},
{
alignment = -1;
pos = (257,398);
ref = dot.part;
},
{
pos = (415,100);
ref = dot.part;
},
{
closed = 1;
nodes = (
(1014,0,l),
(1315,0,l),
(1315,500,l),
(1014,500,l)
);
}
);
width = 1615;
},
{
layerId = "BE12DD55-7D13-4A7B-AFE0-E30529788D84";
shapes = (
{
alignment = -1;
pos = (696,651);
ref = dot.part;
},
{
alignment = -1;
pos = (297,946);
ref = dot.part;
},
{
alignment = -1;
pos = (0,1250);
ref = dot.part;
},
{
alignment = -1;
pos = (1093,349);
ref = dot.part;
},
{
pos = (1501,49);
ref = dot.part;
},
{
closed = 1;
nodes = (
(2154,-1,l),
(2501,-1,l),
(2501,498,l),
(2154,498,l)
);
}
);
width = 2801;
}
);
metricLeft = unit;
metricRight = unit;
},
{
glyphname = "diagonal-two.part";
lastChange = "2025-02-06 08:17:57 +0000";
layers = (
{
layerId = m01;
shapes = (
{
alignment = -1;
pos = (101,703);
ref = dot.part;
},
{
alignment = -1;
pos = (66,898);
ref = dot.part;
},
{
alignment = -1;
pos = (29,1098);
ref = dot.part;
},
{
alignment = -1;
pos = (0,1302);
ref = dot.part;
},
{
alignment = -1;
pos = (177,296);
ref = dot.part;
},
{
alignment = -1;
pos = (142,500);
ref = dot.part;
},
{
closed = 1;
nodes = (
(535,249,ls),
(535,84,o),
(620,-1,o),
(785,-1,cs),
(1110,-1,ls),
(1242,-1,o),
(1327,84,o),
(1327,249,cs),
(1327,282,ls),
(1327,414,o),
(1242,499,o),
(1110,499,cs),
(785,499,ls),
(620,499,o),
(535,414,o),
(535,282,cs)
);
}
);
width = 1627;
},
{
layerId = "BE12DD55-7D13-4A7B-AFE0-E30529788D84";
shapes = (
{
alignment = -1;
pos = (300,651);
ref = dot.part;
},
{
alignment = -1;
pos = (202,852);
ref = dot.part;
},
{
alignment = -1;
pos = (95,1051);
ref = dot.part;
},
{
alignment = -1;
pos = (0,1250);
ref = dot.part;
},
{
alignment = -1;
pos = (467,249);
ref = dot.part;
},
{
alignment = -1;
pos = (401,450);
ref = dot.part;
},
{
closed = 1;
nodes = (
(887,250,ls),
(887,115,o),
(976,0,o),
(1183,0,cs),
(1659,0,ls),
(1845,0,o),
(1931,115,o),
(1931,250,cs),
(1931,283,ls),
(1931,397,o),
(1845,500,o),
(1659,500,cs),
(1183,500,ls),
(976,500,o),
(887,397,o),
(887,283,cs)
);
}
);
width = 2231;
}
);
metricLeft = unit;
metricRight = unit;
},
{
glyphname = dot.part;
lastChange = "2025-02-09 10:15:14 +0000";
layers = (
{
layerId = m01;
shapes = (
{
closed = 1;
nodes = (
(900,335,o),
(845,400,o),
(650,400,cs),
(550,400,ls),
(355,400,o),
(300,335,o),
(300,200,cs),
(300,102,ls),
(300,-33,o),
(355,-100,o),
(550,-100,cs),
(650,-100,ls),
(845,-100,o),
(900,-33,o),
(900,102,cs),
(900,200,ls)
);
}
);
width = 1200;
},
{
layerId = "BE12DD55-7D13-4A7B-AFE0-E30529788D84";
shapes = (
{
closed = 1;
nodes = (
(1000,385,o),
(936,450,o),
(770,450,cs),
(530,450,ls),
(364,450,o),
(300,385,o),
(300,250,cs),
(300,150,ls),
(300,15,o),
(364,-50,o),
(530,-50,cs),
(770,-50,ls),
(936,-50,o),
(1000,15,o),
(1000,150,cs),
(1000,250,ls)
);
}
);
width = 1300;
}
);
metricLeft = unit;
metricRight = unit;
},
